<?xml version="1.0" standalone="no"?>
<!DOCTYPE svg PUBLIC "-//W3C//DTD SVG 20010904//EN"
 "http://www.w3.org/TR/2001/REC-SVG-20010904/DTD/svg10.dtd">
<svg version="1.0" xmlns="http://www.w3.org/2000/svg"
 width="203.000000pt" height="203.000000pt" viewBox="0 0 203.000000 203.000000"
 preserveAspectRatio="xMidYMid meet">
<metadata>
Created by potrace 1.14, written by Peter Selinger 2001-2017
</metadata>
<g transform="translate(0.000000,203.000000) scale(0.100000,-0.100000)"
fill="#000000" stroke="none">
<path d="M713 1735 c-168 -43 -414 -179 -526 -292 -62 -62 -120 -149 -146
-218 -24 -64 -42 -165 -29 -165 4 0 8 10 9 23 3 106 90 258 181 320 73 49 95
34 104 -69 7 -81 34 -190 62 -254 l20 -45 -1 36 c-1 21 -5 35 -9 33 -9 -6 -21
72 -20 136 2 197 112 334 297 369 82 16 259 7 355 -18 146 -39 364 -142 444
-210 10 -9 21 -15 25 -13 3 1 24 -16 47 -38 22 -22 43 -38 46 -35 2 3 14 -14
26 -38 12 -23 22 -34 22 -25 0 30 -80 170 -135 238 -30 36 -82 94 -116 130
-93 98 -107 128 -61 131 38 2 -36 16 -83 15 -76 -1 -70 -21 32 -105 48 -40
116 -100 151 -134 65 -63 168 -194 160 -203 -3 -2 -12 6 -21 20 -59 89 -213
221 -397 340 -71 46 -90 63 -87 77 5 17 -1 19 -53 19 -122 0 -120 -25 8 -85
208 -98 311 -160 402 -245 l55 -51 -89 65 c-158 114 -342 190 -563 232 -39 7
-73 23 -73 33 0 14 56 42 65 33 5 -4 5 -1 1 6 -4 6 -8 12 -9 11 -1 0 -44 -11
-94 -24z"/>
<path d="M1376 1694 c-3 -7 15 -41 39 -76 165 -233 210 -314 210 -385 0 -24 3
-36 8 -30 5 7 7 3 4 -10 -3 -13 -1 -25 3 -28 5 -3 7 -14 5 -25 -2 -12 0 -18 4
-16 12 8 4 105 -14 176 -15 57 -50 132 -135 290 -31 58 -37 80 -20 80 24 0 7
19 -22 26 -58 13 -76 12 -82 -2z"/>
<path d="M1560 1609 c0 -12 18 -66 40 -121 23 -55 47 -128 55 -162 23 -95 17
-269 -7 -234 -7 9 -8 8 -4 -5 3 -11 -3 -40 -14 -65 -22 -53 -2 -33 30 28 46
89 50 206 13 369 -13 57 -23 114 -23 126 0 25 20 37 48 29 14 -5 15 -4 2 5
-34 26 -91 51 -115 51 -19 0 -25 -5 -25 -21z"/>
<path d="M795 1579 c-101 -8 -156 -23 -223 -61 -89 -50 -141 -111 -172 -202
-22 -60 -33 -165 -20 -185 7 -12 10 5 11 62 0 9 5 15 10 11 6 -3 7 4 4 19 -8
31 31 117 80 174 115 134 349 187 580 129 6 -1 26 -6 45 -10 40 -8 176 -54
203 -68 9 -5 17 -6 17 -4 0 9 -90 52 -155 74 -150 52 -263 70 -380 61z"/>
<path d="M809 1526 c-2 -2 -20 -6 -39 -9 -91 -12 -199 -67 -264 -134 -45 -46
-102 -140 -92 -150 3 -3 10 5 17 18 17 36 129 128 194 162 68 34 167 67 202
67 13 0 22 4 19 9 -3 5 -29 3 -58 -5 -114 -28 -154 -45 -225 -97 -29 -20 -53
-33 -53 -28 0 27 179 121 255 134 17 3 42 8 56 12 16 4 30 2 33 -4 4 -6 13
-11 19 -11 7 0 6 4 -3 11 -11 7 21 9 109 5 125 -6 147 -4 81 9 -41 8 -245 17
-251 11z m-299 -179 c0 -2 -14 -16 -32 -33 l-32 -29 25 32 c20 27 39 41 39 30z"/>
<path d="M1736 1501 c-3 -5 -5 -75 -4 -157 1 -127 -2 -159 -21 -216 -23 -71
-78 -163 -98 -163 -7 0 -18 -6 -25 -14 -10 -10 -10 -12 0 -7 21 12 13 -4 -15
-29 -79 -70 -277 -173 -310 -161 -7 3 -13 2 -13 -3 0 -4 -35 -18 -77 -30 -187
-54 -253 -91 -253 -142 0 -10 13 -33 29 -52 126 -143 481 -167 716 -50 65 33
162 102 201 145 45 47 125 178 110 178 -2 0 -17 -21 -32 -47 -90 -156 -311
-274 -511 -274 -138 -1 -254 46 -265 106 -7 35 39 79 129 125 207 106 326 198
395 304 51 80 77 152 98 277 9 58 20 111 24 117 12 20 43 13 77 -15 l34 -28
-22 30 c-56 78 -148 137 -167 106z"/>
<path d="M1123 1493 c9 -2 23 -2 30 0 6 3 -1 5 -18 5 -16 0 -22 -2 -12 -5z"/>
<path d="M162 1284 c-41 -17 -96 -103 -116 -180 -20 -77 -15 -210 12 -286 11
-31 17 -60 14 -64 -4 -4 -1 -4 5 0 12 7 19 -13 13 -39 -1 -5 2 -7 6 -3 4 4 14
-6 23 -22 44 -82 153 -190 256 -255 25 -15 28 -16 16 -2 -8 10 -9 17 -3 17 11
0 27 -19 27 -32 0 -3 4 -10 9 -15 5 -5 6 -3 2 5 -9 16 4 15 26 -2 10 -7 14
-17 10 -21 -4 -5 -2 -5 4 -2 7 4 42 -7 78 -24 69 -32 226 -79 261 -78 11 0
-13 9 -53 19 -217 57 -439 219 -517 377 -63 130 -67 246 -7 277 41 21 87 11
200 -44 57 -27 106 -50 110 -50 3 0 -15 15 -40 33 -25 17 -45 34 -44 37 0 3
-14 24 -31 47 -18 22 -30 43 -26 47 3 3 2 6 -4 6 -6 0 -37 46 -69 103 -94 166
-104 176 -162 151z m143 -197 c160 -169 160 -170 45 -87 -110 78 -150 87 -194
44 -103 -104 -15 -381 176 -548 71 -62 45 -59 -30 4 -94 78 -173 193 -212 309
-48 142 -17 316 63 354 44 22 74 7 152 -76z"/>
<path d="M1887 1287 c-9 -7 -34 -56 -56 -111 -58 -143 -109 -216 -247 -351
-151 -149 -162 -167 -123 -204 31 -29 121 -36 200 -16 86 22 149 58 213 120
95 93 136 190 137 321 1 138 -72 280 -124 241z"/>
<path d="M5 1039 c-4 -6 -5 -12 -2 -15 2 -3 7 2 10 11 7 17 1 20 -8 4z"/>
<path d="M5 981 c-3 -5 -2 -12 3 -15 5 -3 9 1 9 9 0 17 -3 19 -12 6z"/>
<path d="M12 921 c1 -16 5 -28 9 -26 6 5 0 55 -7 55 -3 0 -3 -13 -2 -29z"/>
<path d="M322 870 c-31 -13 -53 -70 -46 -117 28 -179 280 -389 537 -449 46
-11 74 -22 70 -28 -3 -6 0 -6 7 1 8 7 21 8 34 3 28 -10 256 -13 256 -3 0 4
-19 8 -42 8 -131 -1 -286 32 -419 89 -217 94 -381 304 -306 392 31 36 86 39
222 15 61 -10 111 -18 112 -17 2 1 -68 26 -154 55 -163 55 -232 68 -271 51z"/>
<path d="M1985 829 c-4 -6 -5 -12 -2 -15 2 -3 7 2 10 11 7 17 1 20 -8 4z"/>
<path d="M601 727 c-89 -34 -80 -118 25 -219 67 -64 146 -109 260 -147 91 -30
107 -34 204 -47 73 -10 259 -2 280 11 4 2 21 7 38 10 80 14 226 78 279 122 19
16 9 12 -32 -11 -33 -19 -98 -46 -145 -59 -222 -64 -425 -50 -615 44 -89 43
-108 57 -148 111 -57 75 -16 138 100 154 32 4 60 8 63 9 3 1 38 5 78 9 39 4
72 11 72 15 0 12 -423 11 -459 -2z"/>
<path d="M1118 733 c6 -2 18 -2 25 0 6 3 1 5 -13 5 -14 0 -19 -2 -12 -5z"/>
<path d="M1190 282 c0 -4 16 -6 35 -4 19 2 35 6 35 8 0 2 -16 4 -35 4 -19 0
-35 -4 -35 -8z"/>
<path d="M838 273 c6 -2 18 -2 25 0 6 3 1 5 -13 5 -14 0 -19 -2 -12 -5z"/>
</g>
</svg>
